<svg data-name="Layer 1" xmlns="http://www.w3.org/2000/svg" xmlns:xlink="http://www.w3.org/1999/xlink" viewBox="0 0 556.74 156.56"><defs><style>.cls-1{fill:url(#linear-gradient);}.cls-2{fill:url(#linear-gradient-2);}.cls-3{fill:url(#linear-gradient-3);}.cls-4{fill:url(#linear-gradient-4);}.cls-5{fill:url(#linear-gradient-5);}.cls-6{fill:url(#linear-gradient-6);}.cls-7{fill:url(#linear-gradient-7);}.cls-8{fill:url(#linear-gradient-8);}.cls-9{font-size:47px;fill:#211c53;font-family:Rubik-Light, Rubik;font-weight:300;letter-spacing:1.25em;}.cls-10{letter-spacing:1.26em;}.cls-11{fill:none;stroke-miterlimit:10;stroke-width:3px;stroke:url(#linear-gradient-9);}</style><linearGradient id="linear-gradient" x1="6.31" y1="49.44" x2="84" y2="49.44" gradientUnits="userSpaceOnUse"><stop offset="0" stop-color="#fff"/><stop offset="0.01" stop-color="#211c53"/><stop offset="0.13" stop-color="#232256"/><stop offset="0.31" stop-color="#283460"/><stop offset="0.51" stop-color="#30506f"/><stop offset="0.74" stop-color="#3b7884"/><stop offset="0.97" stop-color="#49ab9f"/><stop offset="1" stop-color="#4bb1a2"/></linearGradient><linearGradient id="linear-gradient-2" x1="90.52" y1="54.54" x2="163.48" y2="54.54" xlink:href="#linear-gradient"/><linearGradient id="linear-gradient-3" x1="170.99" y1="54.54" x2="227.37" y2="54.54" xlink:href="#linear-gradient"/><linearGradient id="linear-gradient-4" x1="233.75" y1="54.47" x2="307.66" y2="54.47" xlink:href="#linear-gradient"/><linearGradient id="linear-gradient-5" x1="314.51" y1="54.54" x2="365.55" y2="54.54" xlink:href="#linear-gradient"/><linearGradient id="linear-gradient-6" x1="373.01" y1="54.54" x2="396.83" y2="54.54" xlink:href="#linear-gradient"/><linearGradient id="linear-gradient-7" x1="403.02" y1="54.54" x2="482.5" y2="54.54" xlink:href="#linear-gradient"/><linearGradient id="linear-gradient-8" x1="488.51" y1="54.54" x2="544.88" y2="54.54" xlink:href="#linear-gradient"/><linearGradient id="linear-gradient-9" x1="91" y1="102.28" x2="545.49" y2="102.28" gradientUnits="userSpaceOnUse"><stop offset="0" stop-color="#fff"/><stop offset="0" stop-color="#211c53"/><stop offset="0.13" stop-color="#232256"/><stop offset="0.31" stop-color="#27325e"/><stop offset="0.5" stop-color="#2f4c6c"/><stop offset="0.71" stop-color="#397180"/><stop offset="0.93" stop-color="#46a099"/><stop offset="1" stop-color="#4bb1a2"/></linearGradient></defs><path class="cls-1" d="M84,25.53l-2.84,1.84A38.89,38.89,0,0,0,67.24,14.89,39.08,39.08,0,0,0,33.65,13.4,38.47,38.47,0,0,0,12.81,34.24a38.79,38.79,0,0,0,0,30.39A38.38,38.38,0,0,0,33.65,85.47a38.85,38.85,0,0,0,33.62-1.54A39.17,39.17,0,0,0,81.21,71.41L84,73.49A42.62,42.62,0,0,1,68.83,87a42.32,42.32,0,0,1-36.51,1.61A41.89,41.89,0,0,1,9.69,66a42,42,0,0,1,0-33A41.91,41.91,0,0,1,32.32,10.29a42.35,42.35,0,0,1,36.56,1.63A42.47,42.47,0,0,1,84,25.53ZM78.42,29.4l-2.83,1.84A32.22,32.22,0,0,0,64.08,20.92a32.28,32.28,0,0,0-27.81-1.25,31.45,31.45,0,0,0-17.2,17.2,32.26,32.26,0,0,0,0,25.14,31.54,31.54,0,0,0,17.2,17.2,31.81,31.81,0,0,0,12.57,2.55A31.45,31.45,0,0,0,64.1,77.93,32.41,32.41,0,0,0,75.59,67.58l2.74,2A35.61,35.61,0,0,1,65.64,81a35.86,35.86,0,0,1-34.71-.61,35.65,35.65,0,0,1-13-13,35.81,35.81,0,0,1,0-35.82,35.65,35.65,0,0,1,13-13,35.79,35.79,0,0,1,34.78-.57A35.75,35.75,0,0,1,78.42,29.4Zm-5.67,3.78L69.91,35a25.46,25.46,0,0,0-9-8.1A25.63,25.63,0,0,0,36,27.35a25.49,25.49,0,0,0-9.28,9.28,25.62,25.62,0,0,0,0,25.61A25.44,25.44,0,0,0,36,71.53a25.63,25.63,0,0,0,24.86.4A25.48,25.48,0,0,0,70,63.76l2.79,1.93A28.53,28.53,0,0,1,62.47,75a29,29,0,0,1-28.14-.47A28.65,28.65,0,0,1,23.79,63.94a29.12,29.12,0,0,1,0-29A28.8,28.8,0,0,1,34.33,24.39a29.08,29.08,0,0,1,28.14-.47A28.72,28.72,0,0,1,72.75,33.18Zm-5.62,3.88L64.34,38.9a18.63,18.63,0,0,0-15.5-8.18A18.73,18.73,0,0,0,30.13,49.44,18.71,18.71,0,0,0,48.84,68.15a18.29,18.29,0,0,0,8.86-2.22,18.61,18.61,0,0,0,6.64-6l2.74,2a22,22,0,0,1-7.84,7,22,22,0,0,1-19,.85A21.83,21.83,0,0,1,28.47,58a21.88,21.88,0,0,1,0-17.15A21.92,21.92,0,0,1,40.26,29.07a22,22,0,0,1,19,.87A21.94,21.94,0,0,1,67.13,37.06Z"/><path class="cls-2" d="M116.22,69.66h20.51a23.27,23.27,0,0,0,11.63-3,23.17,23.17,0,0,0,11.72-20.32,20.87,20.87,0,0,0-3.17-11.08A23.48,23.48,0,0,0,148.34,27a23.13,23.13,0,0,0-11.61-3.07H93.92V88.57h-3.4v-68h46.21A26,26,0,0,1,147,22.62a27.66,27.66,0,0,1,8.53,5.58,26.64,26.64,0,0,1,5.77,8.24,23.58,23.58,0,0,1,2.17,9.88,27.05,27.05,0,0,1-3.78,14.43,24.83,24.83,0,0,1-10.16,9.39l7.14,18.43H153l-6.76-17.06c-.85.28-1.84.56-3,.85l6.38,16.21H146l-6.23-15.65a30.26,30.26,0,0,1-3.08.15l6,15.5h-3.6l-5.95-15.5h-3.07l5.72,15.5h-3.6l-5.76-15.5H116.22Zm0-6.8h20.51a16.39,16.39,0,0,0,11.68-4.63,15.73,15.73,0,0,0,4.86-11.91,14.56,14.56,0,0,0-5-10.89,16.3,16.3,0,0,0-11.58-4.71h-36V88.57h-3.4V27.32h39.41a19.57,19.57,0,0,1,14,5.7,17.85,17.85,0,0,1,6,13.3,19,19,0,0,1-5.89,14.22,19.48,19.48,0,0,1-14.06,5.72H116.22Zm0-6.81h20.51a10,10,0,0,0,6.9-2.55,9.16,9.16,0,0,0,2.84-7.18,8.1,8.1,0,0,0-3-6.1,9.76,9.76,0,0,0-6.78-2.69h-29.2v51h-3.4V34.13h32.6a13.1,13.1,0,0,1,9.2,3.68,11.35,11.35,0,0,1,3.94,8.51A12.43,12.43,0,0,1,146,55.89a13.14,13.14,0,0,1-9.31,3.57H116.22Zm-1.88,32.52h-3.41V40.93h25.8a6.67,6.67,0,0,1,4.49,1.58,4.87,4.87,0,0,1,1.85,3.81q0,6.33-6.34,6.33H116.22v-3.4h20.51a2.59,2.59,0,0,0,2.93-2.93,1.69,1.69,0,0,0-.87-1.4,3.61,3.61,0,0,0-2.06-.59H114.34Z"/><path class="cls-3" d="M174.4,88.57H171v-68h3.41Zm6.8,0h-3.4v-68h3.4Zm6.81,0H184.6v-68H188Zm6.8-17h32.56V75H194.81v3.41h32.56v3.4H194.81v3.4h32.56v3.41h-36v-68h36v3.4H194.81v3.4h32.56v3.4H194.81v3.41h32.56v3.4H194.81V46h30.67v3.4H194.81v3.4h30.67v3.4H194.81V59.6h30.67V63H194.81Z"/><path class="cls-4" d="M307.66,55V88.57h-3.4V55a33.21,33.21,0,0,0-4.49-17.22,30.93,30.93,0,0,0-12.24-11.72,36.13,36.13,0,0,0-17.3-4.14,32.92,32.92,0,0,0-16.77,4.4A32.76,32.76,0,0,0,239,65.57a29.72,29.72,0,0,0,5.1,9.12,35,35,0,0,0,7.47,6.74,33.72,33.72,0,0,0,9.12,4.3,34.39,34.39,0,0,0,10,1.46,26.77,26.77,0,0,0,10.58-2.12v3.5a32.46,32.46,0,0,1-10.77,1.84,39,39,0,0,1-11.13-1.61,35.49,35.49,0,0,1-10-4.75,38.13,38.13,0,0,1-8.1-7.42,32.36,32.36,0,0,1-5.48-10,36.48,36.48,0,0,1-2-12.1,36.36,36.36,0,0,1,10.33-25.45,35.31,35.31,0,0,1,11.62-7.7,37.36,37.36,0,0,1,14.53-2.86A40.73,40.73,0,0,1,285,21.18a35.85,35.85,0,0,1,11.9,7.35,33.38,33.38,0,0,1,7.9,11.55A38.17,38.17,0,0,1,307.66,55Zm-6.81,0V88.57h-3.4V55a26.62,26.62,0,0,0-3.57-13.82A24,24,0,0,0,284.13,32a29.75,29.75,0,0,0-13.9-3.21,26.42,26.42,0,0,0-13.37,3.47A25.4,25.4,0,0,0,244,54.54a26.8,26.8,0,0,0,2.22,11,22.66,22.66,0,0,0,6,8.2,27.66,27.66,0,0,0,8.55,5,28.8,28.8,0,0,0,10,1.77,26.26,26.26,0,0,0,10.49-2.22v3.45a30,30,0,0,1-10.58,2,31.31,31.31,0,0,1-15-3.68,28.68,28.68,0,0,1-15.07-25.57,28.62,28.62,0,0,1,2.29-11.34,28.41,28.41,0,0,1,15.66-15.55,30.1,30.1,0,0,1,11.72-2.31A33,33,0,0,1,285.85,29a27.46,27.46,0,0,1,11,10.49A30,30,0,0,1,300.85,55Zm-6.8,0V88.57h-3.4V55q0-8.92-5.72-14.2t-14.7-5.27a19,19,0,0,0-13.89,5.53,18.26,18.26,0,0,0-5.58,13.47,21.32,21.32,0,0,0,1.68,8.65A15.88,15.88,0,0,0,257,69.33a20.65,20.65,0,0,0,6.45,3.52A23.22,23.22,0,0,0,271,74.06a22.09,22.09,0,0,0,10.25-2.51v3.59a26.51,26.51,0,0,1-10.3,2.13,27.19,27.19,0,0,1-8.88-1.44,23.34,23.34,0,0,1-7.52-4.21,19.2,19.2,0,0,1-5.24-7.18,24.39,24.39,0,0,1-1.94-9.9A21.51,21.51,0,0,1,254,38.69a22.18,22.18,0,0,1,16.28-6.55,26.21,26.21,0,0,1,12.19,2.77,20.65,20.65,0,0,1,8.51,8A23.19,23.19,0,0,1,294.05,55Zm-10.21,0q0-6-3.73-9.35t-9.88-3.31a12.45,12.45,0,0,0-8.93,3.59,11.5,11.5,0,0,0-3.73,8.6,16,16,0,0,0,.75,5.08,10.49,10.49,0,0,0,5.15,6.19,14.35,14.35,0,0,0,3.76,1.4,19.94,19.94,0,0,0,4.18.42A18.77,18.77,0,0,0,281.24,65v3.41a21,21,0,0,1-9.87,2.41,21.88,21.88,0,0,1-6.41-.92,17.48,17.48,0,0,1-5.45-2.79,12.79,12.79,0,0,1-3.9-5.11,17.93,17.93,0,0,1-1.44-7.44,15,15,0,0,1,4.58-11.06A15.66,15.66,0,0,1,270.23,39q7.61,0,12.31,4.27T287.24,55V88.57h-3.4Z"/><path class="cls-5" d="M314.51,23.92v-3.4h51v3.4Zm0,6.8v-3.4h51v3.4Zm0,6.81v-3.4h51v3.4Zm13.61,1.84h3.4v49.2h-3.4Zm6.81,0h3.4v49.2h-3.4Zm6.8,0h3.4v49.2h-3.4Zm6.8,0h3.41v49.2h-3.41Z"/><path class="cls-6" d="M373,20.52h3.41V88.57H373Zm6.81,0h3.4V88.57h-3.4Zm6.8,0H390V88.57h-3.41Zm6.81,0h3.4V88.57h-3.4Z"/><path class="cls-7" d="M403,20.52h3.69L431.8,84l25.09-63.46h3.64L433.64,88.57H430Zm7.32,0H414l20.18,51-1.94,4.35Zm7.33,0h3.68L437.8,62.24,436,66.92Zm7.32,0h3.64l12.76,32.27-1.79,4.78Zm39.18,0h3.68L440.92,88.57h-3.64Zm7.37,0h3.64L448.24,88.57H444.6Zm7.28,0h3.68L455.57,88.57h-3.64Z"/><path class="cls-8" d="M491.91,88.57h-3.4v-68h3.4Zm6.8,0h-3.4v-68h3.4Zm6.81,0h-3.4v-68h3.4Zm6.8-17h32.56V75H512.32v3.41h32.56v3.4H512.32v3.4h32.56v3.41h-36v-68h36v3.4H512.32v3.4h32.56v3.4H512.32v3.41h32.56v3.4H512.32V46H543v3.4H512.32v3.4H543v3.4H512.32V59.6H543V63H512.32Z"/><text class="cls-9" transform="translate(89 146.13)">S<tspan class="cls-10" x="87.28" y="0">TUDIO</tspan></text><line class="cls-11" x1="91" y1="102.28" x2="545.49" y2="102.28"/></svg>
